<svg id="Layer_1" data-name="Layer 1" xmlns="http://www.w3.org/2000/svg" viewBox="0 0 576.67 141.22"><defs><style>.cls-1{fill:#bb0e82;}.cls-2{fill:#00ae9a;}</style></defs><title>Vector Smart Object27</title><path class="cls-1" d="M440.14,372q-6.19-5.08-6.19-12.37v-.77h4.64v.77a12.52,12.52,0,0,0,4.75,9.83,17.47,17.47,0,0,0,11.6,4.09A16.41,16.41,0,0,0,466.53,369a14.88,14.88,0,0,0,4.75-11,12.94,12.94,0,0,0-3.86-9.5,12.15,12.15,0,0,0-9.17-4h-7.51v-4.08h7.51a9.32,9.32,0,0,0,7.4-3.76,13.35,13.35,0,0,0,3.09-8.94,12.47,12.47,0,0,0-4.31-9.5,15,15,0,0,0-10.38-3.87A14.58,14.58,0,0,0,444,318.12a12.08,12.08,0,0,0-4.19,9.16v2.1h-4.64l.44-3.31A14.64,14.64,0,0,1,441,314.69a19.36,19.36,0,0,1,13-4.63,19.75,19.75,0,0,1,13.7,5.19,16.39,16.39,0,0,1,5.63,12.48,15.91,15.91,0,0,1-2.54,8.72,15.23,15.23,0,0,1-6.63,6,15.26,15.26,0,0,1,8.4,5.75,15.66,15.66,0,0,1,3.31,9.83,17.71,17.71,0,0,1-6.19,13.58,21,21,0,0,1-14.79,5.63A22,22,0,0,1,440.14,372Z" transform="translate(-70.11 -287.54)"/><path class="cls-1" d="M492,369.58q-5.52-7.62-5.52-22.53,0-17.44,6.18-27.16T510,310.17a20,20,0,0,1,13,4.41q5.41,4.43,5.41,10.72h-4.63a9.55,9.55,0,0,0-4.09-7.73,15,15,0,0,0-9.72-3.21q-7.85,0-13.36,7.84t-5.52,19v5.85a16.79,16.79,0,0,1,6.62-8.5,18.52,18.52,0,0,1,10.61-3.2,19.09,19.09,0,0,1,14.24,6.18,20.54,20.54,0,0,1,5.85,14.8,20.8,20.8,0,0,1-5.85,14.8,19.24,19.24,0,0,1-14.24,6.07Q497.56,377.2,492,369.58Zm27.61-1.1a18.23,18.23,0,0,0,0-24.3,14.71,14.71,0,0,0-11.26-5.08A15.07,15.07,0,0,0,497,344.18a18.23,18.23,0,0,0,0,24.3,15.07,15.07,0,0,0,11.38,5.08A14.71,14.71,0,0,0,519.65,368.48Z" transform="translate(-70.11 -287.54)"/><path class="cls-1" d="M544.61,368.37q-5.54-8.73-5.53-24.63T544.61,319q5.52-8.83,15.46-8.83T575.53,319q5.52,8.83,5.52,24.74t-5.52,24.63q-5.52,8.83-15.46,8.83T544.61,368.37Zm27.83-2.65q4.41-7.85,4.41-22t-4.41-22q-4.43-7.83-12.37-7.84t-12.37,7.84q-4.43,7.85-4.42,22t4.42,22q4.41,7.83,12.37,7.84T572.44,365.72Z" transform="translate(-70.11 -287.54)"/><path class="cls-1" d="M582.55,317.75a4.06,4.06,0,0,1-1.1-3.05,3.81,3.81,0,1,1,1.1,3.05Zm5.51-.33a4.66,4.66,0,0,0,0-5.45,3.58,3.58,0,0,0-4.9,0,4.66,4.66,0,0,0,0,5.45,3.58,3.58,0,0,0,4.9,0Z" transform="translate(-70.11 -287.54)"/><path class="cls-2" d="M581.39,377.78l15.09,4.44c-24.11,25.32-53.65,36.56-68.87,25.11-5.09-3.84-8-9.78-8.8-17l-3.5.47c-.17,13.33,4,24.6,13.1,31.41,20.11,15.15,56.74,3.21,85.12-26.51l7.34,11.84c6.88-29.68,3.63-15.67,12.55-54.17Z" transform="translate(-70.11 -287.54)"/><path class="cls-2" d="M633.63,294.1c-13.85-10.43-35.55-8-57,4.22l.72,1.84c16.06-8.68,31.4-10.53,41-3.29,13.65,10.27,11.49,35.58-3.54,61.17l22.11-9-3.17,19.46C650.74,338.36,651.56,307.6,633.63,294.1Z" transform="translate(-70.11 -287.54)"/><path class="cls-1" d="M88.42,347.88c.29,13.21.39,16.71,1.09,28.21l-.5.6c-8.8,0-10.5,0-17.8.3l-.5-.5c.2-11.51.4-23,.4-34.51,0-17.7-.4-25.6-1-35.4l.6-.6c21.6.1,26.91.1,43.41-.2l.6.5-1.1,12.4-.6.7-24.51-.3v16.7l22.81-.8.5.6-.8,11.7-.7.6Z" transform="translate(-70.11 -287.54)"/><path class="cls-1" d="M159.94,354.28c0,9.41,0,11.91.7,21.71l-.5.7c-6.5-.1-8.7,0-15.9.3l-.6-.7v-3.7a20.68,20.68,0,0,1-13.9,5.3c-9.8,0-17.5-6.9-17.5-17.61a16,16,0,0,1,7.5-13.7c6-3.7,11.6-4.8,23.6-6.4a6.31,6.31,0,0,0-1.3-4.3c-1.3-1.3-2.8-1.9-6.5-1.9-6.7,0-13.2,2.6-16.7,4l-.8-.4.5-10.9.6-.8c5.7-1.7,11-3.3,19.6-3.3,12.8,0,16.8,4,18.8,7.2,2.6,4.2,2.6,8.1,2.5,17.1Zm-16.4-3.6c-6.8.9-14.7,2-14.7,8.6,0,4.2,3,6.11,6.6,6.11a16.29,16.29,0,0,0,8.1-2.6Z" transform="translate(-70.11 -287.54)"/><path class="cls-1" d="M197.64,344c5.5,2.1,13.2,5,13.2,16a17,17,0,0,1-.1,2.21c-1.8,14.3-16.8,15.7-24.4,15.7-7.3,0-11.5-1.6-16.4-3.4l-.5-.9c.39-5,.5-6.1.7-11.3l.9-.4a22.11,22.11,0,0,0,4,2.8,25,25,0,0,0,10.6,2.8c5.6,0,7.9-2.7,7.9-5.2,0-3.6-4.4-5.1-7.1-6l-3.8-1.4c-4.7-1.8-13-5-13-15.7a15,15,0,0,1,2.7-8.8c5.2-7.5,15-7.9,19.9-7.9,6.5,0,10.6,1.2,15.3,2.5l.5.6-1,10.9-.9.3c-2.5-1.6-6.4-4.2-12.5-4.2s-7,3.3-7,4.5c0,2.8,2.7,3.9,6.1,5.1Z" transform="translate(-70.11 -287.54)"/><path class="cls-1" d="M264.74,362.19l-.7,11.3-.6.8c-5.3,2.1-8.9,3.6-17.2,3.6-7.2,0-20.81-1.2-26.61-14.7a33.33,33.33,0,0,1-2.4-13.11c0-17.3,10.4-27.6,26.11-27.6a25.61,25.61,0,0,1,7.1.9c3.4.8,11.1,3.2,14.6,15,1.4,5,1.5,10,1.6,14.9l-.6.7-32.3.6a14.24,14.24,0,0,0,2.2,6.11c2.4,3.6,6.5,5.5,12.5,5.5,7.3,0,11.8-2.3,15.6-4.3Zm-14.3-18.61c0-2.3-.1-4.7-1.5-6.9a7.68,7.68,0,0,0-10.4-2.4c-3.8,2.4-4.5,6.6-4.8,9.7Z" transform="translate(-70.11 -287.54)"/><path class="cls-1" d="M324.14,376.59c-8,0-9.7.1-16.3.3l-.6-.6c0-3.4.1-6.9.1-10.3,0-3.8-.1-17.51-.3-20.81-.3-3.6-.8-9.5-6.3-9.5-3.2,0-5.6,1.7-7.7,3.1.09,17.91.2,21.81.79,37.21l-.59.6c-8,0-9.51,0-16.71.3l-.6-.6c.1-6.4.2-12.81.2-19.21a278.16,278.16,0,0,0-1.4-31.3l.6-.7c7.5-1,9.2-1.3,16.91-2.9l1,.7-.2,5.5c4.6-2.7,9.9-5.9,16-5.9,3.6,0,9.3.8,12.4,6,2.5,4.1,2.6,8.7,2.7,18.3v7.8c.2,9.81.2,12.61.7,21.41Z" transform="translate(-70.11 -287.54)"/><path class="cls-1" d="M362.23,340a7.49,7.49,0,0,0-4.1-1.4c-6.8,0-6.8,6.6-6.8,11.1,0,6.9.6,18.21,1,26.31l-.5.7c-8-.1-9.6,0-17,.3l-.6-.6c.2-8.3.3-16.5.3-24.71,0-13.9-.3-18.4-.9-25.9l.6-.6c7.3-1.1,9.2-1.4,16.6-3l.8.8-.3,9.2c3.2-7.4,7.8-9.7,11.9-9.7.7,0,1.4.1,2.1.1l.6.7-2.8,16.3Z" transform="translate(-70.11 -287.54)"/><path class="cls-1" d="M415.14,354.28c0,9.41,0,11.91.7,21.71l-.5.7c-6.51-.1-8.71,0-15.91.3l-.6-.7v-3.7a20.68,20.68,0,0,1-13.9,5.3c-9.8,0-17.5-6.9-17.5-17.61a16,16,0,0,1,7.5-13.7c6-3.7,11.6-4.8,23.61-6.4a6.31,6.31,0,0,0-1.31-4.3c-1.3-1.3-2.8-1.9-6.5-1.9-6.7,0-13.2,2.6-16.7,4l-.8-.4.5-10.9.6-.8c5.7-1.7,11-3.3,19.6-3.3,12.81,0,16.81,4,18.81,7.2,2.6,4.2,2.6,8.1,2.5,17.1Zm-16.41-3.6c-6.8.9-14.7,2-14.7,8.6,0,4.2,3,6.11,6.6,6.11a16.29,16.29,0,0,0,8.1-2.6Z" transform="translate(-70.11 -287.54)"/><path class="cls-1" d="M425.78,314.5a5.06,5.06,0,1,1-5-4.92A4.94,4.94,0,0,1,425.78,314.5Zm-8.85,0a3.81,3.81,0,0,0,3.84,3.93,3.77,3.77,0,0,0,3.75-3.9,3.8,3.8,0,1,0-7.59,0Zm3,2.58h-1.14v-4.92a10,10,0,0,1,1.89-.15,3.07,3.07,0,0,1,1.71.36,1.36,1.36,0,0,1,.48,1.08,1.26,1.26,0,0,1-1,1.14v.06a1.45,1.45,0,0,1,.9,1.2,3.76,3.76,0,0,0,.36,1.23h-1.23a4.21,4.21,0,0,1-.39-1.2c-.09-.54-.39-.78-1-.78H420Zm0-2.79h.54c.63,0,1.14-.21,1.14-.72s-.33-.75-1.05-.75a2.73,2.73,0,0,0-.63.06Z" transform="translate(-70.11 -287.54)"/></svg>