<svg id="Layer_1" data-name="Layer 1" xmlns="http://www.w3.org/2000/svg" viewBox="0 0 51 54.14"><defs><style>.cls-1{opacity:0.2;}.cls-2{fill:#343f49;}.cls-3{fill:#c31887;}.cls-4{fill:#b32572;}</style></defs><title>Vector Smart Object</title><g class="cls-1"><path class="cls-2" d="M466.1,451.12c-.41,0-.83.05-1.23.12a3.92,3.92,0,0,0-.9.38l-2.75,1.24a7.19,7.19,0,0,0-1.25.68,4.73,4.73,0,0,0-1,1.2c-.4.58-.91,1.08-1.31,1.67a12.4,12.4,0,0,0-1.07,1.92l-.12.29a12.15,12.15,0,0,0-.87,4,8.92,8.92,0,0,0,.44,3.24,30.57,30.57,0,0,0,1.34,3,7.41,7.41,0,0,0,2,2.43,18.85,18.85,0,0,0,3.27,2.26,11.76,11.76,0,0,0,5,.89,10.1,10.1,0,0,0,5-1.22,14,14,0,0,0,2.17-1.39,11.6,11.6,0,0,0,1.76-1.94,11.21,11.21,0,0,0,1.51-2.29,12.32,12.32,0,0,0,.93-4.88,8.72,8.72,0,0,0-.12-2.34,12.37,12.37,0,0,0-.86-2.26,14.85,14.85,0,0,0-1.62-2.82,6.74,6.74,0,0,0-1.9-1.71c-.8-.46-1.49-1-2.28-1.52a8.65,8.65,0,0,0-3.62-.84A14.36,14.36,0,0,0,466.1,451.12Zm-8.81,13.07a.69.69,0,0,1,.76-.61.69.69,0,0,1-.14,1.37A.7.7,0,0,1,457.29,464.19Zm2.77,4.25a1,1,0,1,1,.92,1.13A1,1,0,0,1,460.06,468.44Zm16.74-5.11a.69.69,0,0,1-.75.62.7.7,0,0,1-.62-.76.69.69,0,0,1,.76-.61A.68.68,0,0,1,476.8,463.33Zm-7.41-1.58a.69.69,0,0,1-.76.61.69.69,0,0,1,.14-1.37A.7.7,0,0,1,469.39,461.75Zm-3-2.83c0,1.29-.33,1.84-1.31,3.09-.45.58-1.28,1.11-1.52,1.81a1.55,1.55,0,0,0,.6,1.57c.83.7,2,.4,3,.43a8,8,0,0,1,4,.85,3,3,0,0,1-.57,5.41,5.24,5.24,0,0,1-4.11-.12c-1.38-.68-1.77-2.18-2.11-3.62a8.2,8.2,0,0,0-.71-2.11,5.68,5.68,0,0,0-2.14-1.74c-.21-.14-.42-.29-.62-.45a5.65,5.65,0,0,1-2-3.52v-.07a4.29,4.29,0,0,1,1.64-3.83,3.41,3.41,0,0,1,3.72-.8A3.53,3.53,0,0,1,466.42,458.92Zm4-3.11a.68.68,0,1,1-.61-.76A.69.69,0,0,1,470.45,455.81Z" transform="translate(-455.62 -421.83)"/></g><path class="cls-3" d="M506.3,437.33a15.35,15.35,0,0,0-.4-2,7.61,7.61,0,0,0-.77-1.43l-2.52-4.35a11.08,11.08,0,0,0-1.33-2,7.42,7.42,0,0,0-2.16-1.42c-1-.57-1.93-1.34-3-1.91a20.6,20.6,0,0,0-3.38-1.45l-.5-.15a19.56,19.56,0,0,0-6.76-.78,14.94,14.94,0,0,0-5.3,1.25c-1.63.76-3.18,1.83-4.71,2.72a12.6,12.6,0,0,0-3.69,3.76,31.12,31.12,0,0,0-3.2,5.79c-1.06,2.69-.79,5.6-.65,8.43a16.65,16.65,0,0,0,2.86,8.07,22.81,22.81,0,0,0,2.65,3.38,19.55,19.55,0,0,0,3.52,2.58A17.77,17.77,0,0,0,481,460a20.29,20.29,0,0,0,8.24.74,14.78,14.78,0,0,0,3.86-.58,20.17,20.17,0,0,0,3.6-1.8,25.19,25.19,0,0,0,4.42-3.16,10.94,10.94,0,0,0,2.51-3.44c.63-1.39,1.49-2.64,2.15-4,.89-1.85.78-4.15.8-6.15A26,26,0,0,0,506.3,437.33Zm-23.14-12.44A1.15,1.15,0,1,1,482,426,1.15,1.15,0,0,1,483.16,424.89Zm-6.58,5.29a1.72,1.72,0,1,1-1.72,1.72A1.72,1.72,0,0,1,476.58,430.18Zm7.35,19.39a1.72,1.72,0,1,1,1.72,1.72A1.72,1.72,0,0,1,483.93,449.57Zm3.9,7.53A1.15,1.15,0,1,1,489,456,1.15,1.15,0,0,1,487.83,457.1Zm1.4-12.56a1.15,1.15,0,1,1,1.15-1.15A1.15,1.15,0,0,1,489.23,444.54Zm5.85,7.93a1.72,1.72,0,1,1,1.72-1.72A1.72,1.72,0,0,1,495.08,452.47Zm-1.66-13.32c-2.14.25-3.11-.24-5.35-1.66-1-.64-2-1.94-3.24-2.22a2.6,2.6,0,0,0-2.51,1.26c-1,1.48-.33,3.4-.21,5,.17,2.24.25,4.7-.75,6.79a5,5,0,0,1-9.06,0,8.72,8.72,0,0,1-.48-6.84c.9-2.4,3.32-3.29,5.64-4.1a13.3,13.3,0,0,0,3.39-1.53c1.3-.9,1.85-2.5,2.53-3.83a10.88,10.88,0,0,1,.64-1.1,9.48,9.48,0,0,1,5.52-3.88l.11,0a7.13,7.13,0,0,1,6.62,2.08c1.72,1.65,2.71,3.72,1.94,6A5.87,5.87,0,0,1,493.42,439.15Zm5.84,6.18a1.15,1.15,0,1,1,1.14-1.15A1.15,1.15,0,0,1,499.26,445.33Z" transform="translate(-455.62 -421.83)"/><circle class="cls-4" cx="31.6" cy="10.7" r="1.15"/><circle class="cls-4" cx="20.67" cy="26" r="1.15"/><circle class="cls-4" cx="20.74" cy="20.9" r="1.72"/><circle class="cls-4" cx="36.79" cy="14.02" r="1.72"/><circle class="cls-4" cx="36.19" cy="8.41" r="1.15"/><g class="cls-1"><path class="cls-2" d="M490.87,464.31c.2,0,.41,0,.61.05a1.86,1.86,0,0,1,.46.19l1.38.6a3.43,3.43,0,0,1,.63.33,2.39,2.39,0,0,1,.49.6c.21.29.47.53.67.82a6,6,0,0,1,.54,1,1,1,0,0,1,.07.15,5.88,5.88,0,0,1,.45,2,4.48,4.48,0,0,1-.19,1.63c-.17.51-.44,1-.66,1.49a3.81,3.81,0,0,1-1,1.23,9.1,9.1,0,0,1-1.62,1.14,5.91,5.91,0,0,1-2.49.48,5.09,5.09,0,0,1-2.51-.58,7.65,7.65,0,0,1-1.09-.68,6.33,6.33,0,0,1-.89-1,5.5,5.5,0,0,1-.77-1.13,6.14,6.14,0,0,1-.49-2.43,4.15,4.15,0,0,1,0-1.17,6.48,6.48,0,0,1,.42-1.14,7.31,7.31,0,0,1,.8-1.42,3.26,3.26,0,0,1,.94-.87c.39-.23.73-.53,1.13-.77a4.27,4.27,0,0,1,1.8-.44A7.71,7.71,0,0,1,490.87,464.31Zm3.12,8.62a.52.52,0,0,0-.57-.45.51.51,0,0,0-.45.57.5.5,0,0,0,.57.45A.51.51,0,0,0,494,472.93Zm-8.4-2.45a.34.34,0,0,0,.38.3.33.33,0,0,0,.3-.38.34.34,0,0,0-.38-.3A.35.35,0,0,0,485.59,470.48Zm3.7-.84a.35.35,0,0,0,.38.31.35.35,0,0,0,.3-.38.35.35,0,0,0-.38-.31A.34.34,0,0,0,489.29,469.64Zm-2.56-1.48a.52.52,0,1,0,.46-.57A.52.52,0,0,0,486.73,468.16Zm4,0a2,2,0,0,0,.67,1.54c.23.28.65.55.77.89a.78.78,0,0,1-.29.79c-.41.36-1,.22-1.5.23a4.19,4.19,0,0,0-2,.45,1.5,1.5,0,0,0,.32,2.71,2.61,2.61,0,0,0,2-.09,2.42,2.42,0,0,0,1-1.82,4,4,0,0,1,.34-1.06,2.83,2.83,0,0,1,1.06-.88l.31-.23a2.87,2.87,0,0,0,1-1.77v0a2.15,2.15,0,0,0-.84-1.9,1.7,1.7,0,0,0-1.87-.38A1.76,1.76,0,0,0,490.76,468.21Z" transform="translate(-455.62 -421.83)"/></g></svg>