<svg id="icon_3" data-name="icon 3" xmlns="http://www.w3.org/2000/svg" viewBox="0 0 145 145"><defs><style>.cls-1{fill:#c41188;}.cls-2{fill:#fff;}</style></defs><title>Vector Smart Object7</title><circle class="cls-1" cx="72.5" cy="72.5" r="72.5"/><path class="cls-2" d="M70.53,99.85A12,12,0,0,1,82.47,87.91h8V68.34H53.07V106a2.82,2.82,0,0,0,2.82,2.82H74.56A11.91,11.91,0,0,1,70.53,99.85Z" transform="translate(-5.23 -5.23)"/><path class="cls-2" d="M95.3,61.28V50.47a4.24,4.24,0,0,0-4.23-4.24H52.47a4.24,4.24,0,0,0-4.24,4.24V61.28a4.24,4.24,0,0,0,4.24,4.23h38.6A4.24,4.24,0,0,0,95.3,61.28Z" transform="translate(-5.23 -5.23)"/><path class="cls-2" d="M98.46,90.73h-16a9.12,9.12,0,1,0,0,18.23h16a9.12,9.12,0,0,0,0-18.23Zm-16,15.41a6.29,6.29,0,1,1,0-12.58h8v12.58Z" transform="translate(-5.23 -5.23)"/></svg>