{
  "accessors": [
    {
      "bufferView": 2,
      "componentType": 5126,
      "count": 3133,
      "max": [
        0.23814459145069122,
        0.1321689784526825,
        0.25534331798553467
      ],
      "min": [
        -0.23814459145069122,
        -0.1321689635515213,
        -0.22741310298442841
      ],
      "type": "VEC3"
    },
    {
      "bufferView": 2,
      "byteOffset": 37596,
      "componentType": 5126,
      "count": 3133,
      "max": [
        0.99926388263702393,
        0.99957752227783203,
        0.99888670444488525
      ],
      "min": [
        -0.99983161687850952,
        -0.9999280571937561,
        -0.99999624490737915
      ],
      "type": "VEC3"
    },
    {
      "bufferView": 3,
      "componentType": 5126,
      "count": 3133,
      "max": [
        0.99978405237197876,
        0.99964892864227295,
        0.99740022420883179,
        1
      ],
      "min": [
        -0.99995076656341553,
        -0.99345779418945312,
        -0.99979925155639648,
        -1
      ],
      "type": "VEC4"
    },
    {
      "bufferView": 1,
      "componentType": 5126,
      "count": 3133,
      "max": [
        0.99585431814193726,
        0.99425536394119263
      ],
      "min": [
        0.014125498943030834,
        0.012633947655558586
      ],
      "type": "VEC2"
    },
    {
      "bufferView": 2,
      "byteOffset": 75192,
      "componentType": 5126,
      "count": 3133,
      "max": [
        0.012341156601905823,
        0.010791093111038208,
        0.0052285753190517426
      ],
      "min": [
        -0.012134283781051636,
        -0.028293438255786896,
        -0.063767984509468079
      ],
      "type": "VEC3"
    },
    {
      "bufferView": 2,
      "byteOffset": 112788,
      "componentType": 5126,
      "count": 3133,
      "max": [
        0.20198492705821991,
        0.1178986132144928,
        0.20944616198539734
      ],
      "min": [
        -0.21427902579307556,
        -0.11541414260864258,
        -0.19812867045402527
      ],
      "type": "VEC3"
    },
    {
      "bufferView": 0,
      "componentType": 5125,
      "count": 16566,
      "max": [
        3132
      ],
      "min": [
        0
      ],
      "type": "SCALAR"
    },
    {
      "bufferView": 4,
      "componentType": 5126,
      "count": 101,
      "max": [
        3.3333332538604736
      ],
      "min": [
        0
      ],
      "type": "SCALAR"
    },
    {
      "bufferView": 4,
      "byteOffset": 404,
      "componentType": 5126,
      "count": 101,
      "max": [
        1
      ],
      "min": [
        0
      ],
      "type": "SCALAR"
    }
  ],
  "animations": [
    {
      "channels": [
        {
          "sampler": 0,
          "target": {
            "node": 6,
            "path": "weights"
          }
        }
      ],
      "name": "Take 001",
      "samplers": [
        {
          "input": 7,
          "interpolation": "LINEAR",
          "output": 8
        }
      ]
    }
  ],
  "asset": {
    "extras": {
      "author": "AVRspot (https://sketchfab.com/AVRspot)",
      "license": "SKETCHFAB Standard (https://sketchfab.com/licenses)",
      "source": "https://sketchfab.com/3d-models/healthy-human-lungs-animated-ad1a6c31b37547fabfc9fe37af69796b",
      "title": "Healthy human lungs (animated)"
    },
    "generator": "Sketchfab-5.73.1",
    "version": "2.0"
  },
  "bufferViews": [
    {
      "buffer": 0,
      "byteLength": 66264,
      "byteOffset": 0,
      "name": "floatBufferViews",
      "target": 34963
    },
    {
      "buffer": 0,
      "byteLength": 25064,
      "byteOffset": 66264,
      "byteStride": 8,
      "name": "floatBufferViews",
      "target": 34962
    },
    {
      "buffer": 0,
      "byteLength": 150384,
      "byteOffset": 91328,
      "byteStride": 12,
      "name": "floatBufferViews",
      "target": 34962
    },
    {
      "buffer": 0,
      "byteLength": 50128,
      "byteOffset": 241712,
      "byteStride": 16,
      "name": "floatBufferViews",
      "target": 34962
    },
    {
      "buffer": 0,
      "byteLength": 808,
      "byteOffset": 291840,
      "name": "floatBufferViews"
    }
  ],
  "buffers": [
    {
      "byteLength": 292648,
      "uri": "scene.bin"
    }
  ],
  "images": [
    {
      "uri": "textures/Lungs_LowPoly_Mat_baseColor.jpeg"
    },
    {
      "uri": "textures/Lungs_LowPoly_Mat_metallicRoughness.png"
    },
    {
      "uri": "textures/Lungs_LowPoly_Mat_normal.png"
    }
  ],
  "materials": [
    {
      "doubleSided": true,
      "name": "Lungs_LowPoly_Mat",
      "normalTexture": {
        "index": 2,
        "scale": 1,
        "texCoord": 0
      },
      "pbrMetallicRoughness": {
        "baseColorFactor": [
          1,
          1,
          1,
          1
        ],
        "baseColorTexture": {
          "index": 0,
          "texCoord": 0
        },
        "metallicFactor": 1,
        "metallicRoughnessTexture": {
          "index": 1,
          "texCoord": 0
        },
        "roughnessFactor": 1
      }
    }
  ],
  "meshes": [
    {
      "name": "0",
      "primitives": [
        {
          "attributes": {
            "NORMAL": 1,
            "POSITION": 0,
            "TANGENT": 2,
            "TEXCOORD_0": 3
          },
          "indices": 6,
          "material": 0,
          "mode": 4,
          "targets": [
            {
              "NORMAL": 5,
              "POSITION": 4
            }
          ]
        }
      ],
      "weights": [
        0
      ]
    }
  ],
  "nodes": [
    {
      "children": [
        1
      ],
      "name": "RootNode (gltf orientation matrix)",
      "rotation": [
        -0.70710678118654746,
        -0,
        -0,
        0.70710678118654757
      ]
    },
    {
      "children": [
        2
      ],
      "name": "RootNode (model correction matrix)"
    },
    {
      "children": [
        3
      ],
      "matrix": [
        1,
        0,
        0,
        0,
        0,
        0,
        1,
        0,
        0,
        -1,
        0,
        0,
        0,
        0,
        0,
        1
      ],
      "name": "Non-smoker.FBX"
    },
    {
      "children": [
        4
      ],
      "name": ""
    },
    {
      "children": [
        5
      ],
      "name": "RootNode"
    },
    {
      "children": [
        6
      ],
      "name": "Lungs_LowPoly",
      "rotation": [
        -0.7071068286895752,
        -0,
        0,
        0.7071068286895752
      ],
      "translation": [
        -0.023267954587936401,
        0.25281515717506409,
        0.0064747822470963001
      ]
    },
    {
      "mesh": 0,
      "name": "0"
    }
  ],
  "samplers": [
    {
      "magFilter": 9729,
      "minFilter": 9987,
      "wrapS": 10497,
      "wrapT": 10497
    }
  ],
  "scene": 0,
  "scenes": [
    {
      "name": "OSG_Scene",
      "nodes": [
        0
      ]
    }
  ],
  "textures": [
    {
      "sampler": 0,
      "source": 0
    },
    {
      "sampler": 0,
      "source": 1
    },
    {
      "sampler": 0,
      "source": 2
    }
  ]
}

