<svg id="icon_2" data-name="icon 2" xmlns="http://www.w3.org/2000/svg" viewBox="0 0 145 145"><defs><style>.cls-1{fill:#c41188;}.cls-2,.cls-3{fill:#fff;}.cls-3{stroke:#fff;stroke-miterlimit:10;}</style></defs><title>Vector Smart Object6</title><circle class="cls-1" cx="72.5" cy="72.5" r="72.5"/><g id="j0gUoa"><path class="cls-2" d="M53.44,79.9c.29.64.62,1.25.86,1.89a18.17,18.17,0,0,0,4.29,6.5c.24.24.46.52.71.75,1.5,1.33,1.6,2.84.76,4.58-2.3,4.78-4.55,9.58-6.84,14.37-.65,1.35-.55,2,.91,2.29a46.35,46.35,0,0,0,6.81,1.06,60.48,60.48,0,0,0,15-.71,5,5,0,0,0,.56-.11c1.93-.47,2-.61,1.33-2.42a7.3,7.3,0,0,1,.29-6.26,23.23,23.23,0,0,1,2.31-3.44c.94-1.18,1.74-1.24,3.16-.73a41.16,41.16,0,0,0,6,1.9c3,.55,5.06-1.32,5.11-4.39a5.14,5.14,0,0,1,.15-1.79c.21-.52.73-.64,1-1s.29-1.1.44-1.7c.07-.32.09-.74.3-.92A2,2,0,0,0,97.2,87c-.79-1.68-.76-1.74.91-2.43,2-.81,2.47-1.8,1.61-3.81C98.94,79,98,77.28,97.08,75.55a5.15,5.15,0,0,1-.64-3.2,12.72,12.72,0,0,0-.72-6.25,1,1,0,0,1,.21-.93,2.25,2.25,0,0,0,.94-2.64c-1.21-6-4.33-10.59-10.34-12.65a33,33,0,0,0-23.17.29c-6.31,2.42-9.61,7.3-10.52,13.88-.48,3.46-.91,6.94-1.33,10.41A1.54,1.54,0,0,1,50.23,76c-.67.18-1.42.39-1.37,1.42,0,.2-.51.48-.83.63-7.18,3.35-13.74,9.77-13.21,18.27.25,4,1.89,8.11,7,8.73,2.89.34,10.5.18,10.5-5.92s-2.61-11.75-3-13.23a4.57,4.57,0,0,1,.44-3.65,2.43,2.43,0,0,1,1.91-1.46A6.75,6.75,0,0,0,53.44,79.9Z" transform="translate(-7.51 -7.51)"/></g><line class="cls-3" x1="92.2" y1="83.96" x2="118.27" y2="93.6"/><line class="cls-3" x1="91.05" y1="86.16" x2="109.53" y2="99.76"/><line class="cls-3" x1="92.85" y1="81.38" x2="118.3" y2="84.23"/></svg>